<svg id="Camada_1" data-name="Camada 1" xmlns="http://www.w3.org/2000/svg" viewBox="0 0 77 29"><defs><style>.cls-1{fill:none;}.cls-2{fill:#fff;}</style></defs><title>Prancheta 1</title><rect id="canvas_background" data-name="canvas background" class="cls-1" x="-1" y="-1" width="79" height="31"/><path id="BJ4Fh-TxkQ" class="cls-2" d="M48.6,3.3A1.64,1.64,0,0,0,47,4.9a1.6,1.6,0,1,0,1.6-1.6Z"/><path id="rJGt2Zpx17" class="cls-2" d="M56.5,7.8a6.33,6.33,0,0,0-2.5.5,1.93,1.93,0,0,1-1.5.4,1.52,1.52,0,0,1-.9-.5c-.2-.1-.4,0-.4.2v4.3l.1,6.7c0,.3.2.2.5.2h1.4c.3,0,.5-.1.5-.4l.1-6.6a2.81,2.81,0,1,1,5.6,0l.1,6.6c0,.3.2.4.5.4h1.4c.2,0,.4,0,.4-.2l.1-6.6A5.05,5.05,0,0,0,56.5,7.8Z"/><path id="Hymth-TeJX" class="cls-2" d="M75.1,2.1c0-.3-.2-.3-.5-.3H73.3c-.3,0-.5.1-.5.3V9.6c0,.1-.1.1-.1,0A5,5,0,0,0,69.1,8a6.2,6.2,0,1,0,0,12.4,6.16,6.16,0,0,0,6.2-5.8C75.4,11.2,75.1,2.1,75.1,2.1ZM68.5,17.7a3.68,3.68,0,1,1,1-7.3,3.62,3.62,0,0,1,3.2,3.2A3.72,3.72,0,0,1,68.5,17.7Z"/><path id="H1rF3Wplkm" class="cls-2" d="M49.5,7.7H48c-.3,0-.4.2-.4.5V19.6c0,.2.1.2.4.2h1.5c.3,0,.3,0,.3-.2l-.1-3.8V12.3l.1-4.1C49.7,8,49.7,7.7,49.5,7.7Z"/><path id="HkItn-pekm" class="cls-2" d="M48,2.9h0a4.25,4.25,0,0,0-3.6-1.5c-2.5.2-3.8,2.4-3.8,4.6V7.8c0,.1-.2.2-.3.2l-1.2.1c-.2,0-.5.2-.5.4V10a.43.43,0,0,0,.4.4l1.2.1a.22.22,0,0,1,.2.2l.1,8.9c0,.2.2.2.4.2h1.5c.2,0,.4,0,.4-.2l.1-9c0-.1.1-.1.2-.1h2.8c.2,0,.6-.2.6-.4V8.5c0-.2-.4-.4-.6-.4L43.2,8c-.1,0-.5-.1-.5-.2V5.9a2.16,2.16,0,0,1,3.6-1.6.31.31,0,0,1,.2.1A2.48,2.48,0,0,1,48,2.9Z"/><path id="rJDt2Z6gk7" class="cls-2" d="M18.8,9.7H16.7L14,9.8c-.2,0-.3.3-.3.5v1.5c0,.3,0,.4.3.4,0,0,1.6.1,2.6.1.3,0,.3.1.3.3,0,.8.2,2.2-.3,2.9h0a6.32,6.32,0,0,1-5.2,2.2,7,7,0,1,1,0-14,7,7,0,0,1,5.3,2.4h0c.1.2.3.3.4.5s.4.2.6.1l1.4-1a.38.38,0,0,0,.1-.6q-.15,0-.3-.3h0a9.66,9.66,0,0,0-17.1,6,9.58,9.58,0,0,0,9.6,9.5,10.1,10.1,0,0,0,6.5-2.5,3.77,3.77,0,0,0,1.6-2.3c.1-1.4-.1-5.2-.1-5.2C19.3,10,19.1,9.7,18.8,9.7Z"/><path id="H1WF2bagJX" class="cls-2" d="M29.5,7.5a5.8,5.8,0,1,0,5.8,5.8A5.87,5.87,0,0,0,29.5,7.5Zm0,9.3a3.5,3.5,0,0,1,0-7,3.5,3.5,0,0,1,0,7Z"/><path id="ByOKn-TlJQ" class="cls-2" d="M37.7,17h0A9,9,0,0,0,29.5,4.3a9,9,0,0,0-9,9,8.15,8.15,0,0,0,.6,3.1h0v.1a13.39,13.39,0,0,0,.6,1.2,45.86,45.86,0,0,0,7.5,9.8.7.7,0,0,0,.4.2c.1,0,.3-.1.3-.2a48.52,48.52,0,0,0,7.5-9.9v-.1A2.19,2.19,0,0,0,37.7,17ZM29.5,6.5a6.9,6.9,0,1,1-6.9,6.9A6.91,6.91,0,0,1,29.5,6.5Z"/></svg>